<svg width="70" height="28" viewBox="0 0 70 28" fill="none" xmlns="http://www.w3.org/2000/svg">
<path d="M0.310059 22V0.550049H5.17006V18.19H13.9001V22H0.310059Z" fill="white"/>
<path d="M20.8842 17.7701C21.5642 18.61 22.5142 19.03 23.7342 19.03C24.9542 19.03 25.8942 18.61 26.5542 17.7701C27.2342 16.93 27.5742 15.76 27.5742 14.26V14.05C27.5742 12.55 27.2342 11.3801 26.5542 10.5401C25.8942 9.68005 24.9542 9.25005 23.7342 9.25005C22.5342 9.25005 21.5942 9.67005 20.9142 10.51C20.2342 11.33 19.8942 12.49 19.8942 13.99V14.23C19.8942 15.73 20.2242 16.91 20.8842 17.7701ZM23.7042 22.3301C21.3242 22.3301 19.3542 21.6 17.7942 20.14C16.2342 18.66 15.4542 16.72 15.4542 14.32V14.0801C15.4542 11.6601 16.2342 9.70005 17.7942 8.20005C19.3542 6.70005 21.3342 5.95005 23.7342 5.95005C26.1342 5.95005 28.1042 6.69005 29.6442 8.17005C31.2042 9.63005 31.9842 11.57 31.9842 13.99V14.23C31.9842 16.67 31.2042 18.6301 29.6442 20.1101C28.0842 21.5901 26.1042 22.3301 23.7042 22.3301Z" fill="white"/>
<path d="M41.8605 27.7901C37.1405 27.7901 34.5405 25.9701 34.0605 22.3301H38.3805C38.6805 23.8501 39.8405 24.6101 41.8605 24.6101C44.5005 24.6101 45.8205 23.3301 45.8205 20.7701V18.4001C45.3605 19.2201 44.6805 19.9101 43.7805 20.4701C42.8805 21.0301 41.8805 21.3101 40.7805 21.3101C38.8205 21.3101 37.1905 20.6301 35.8905 19.2701C34.5905 17.9101 33.9405 16.0901 33.9405 13.8101V13.6C33.9405 11.38 34.6005 9.55005 35.9205 8.11005C37.2405 6.67005 38.8805 5.95005 40.8405 5.95005C43.1405 5.95005 44.8005 6.85005 45.8205 8.65005V6.31005H50.1405V20.7701C50.1205 23.0701 49.3905 24.8101 47.9505 25.9901C46.5105 27.1901 44.4805 27.7901 41.8605 27.7901ZM42.0705 18.0401C43.2305 18.0401 44.1605 17.6601 44.8605 16.9001C45.5805 16.1201 45.9405 15.07 45.9405 13.75V13.5401C45.9405 12.2001 45.6005 11.15 44.9205 10.39C44.2605 9.63005 43.3405 9.25005 42.1605 9.25005C40.9605 9.25005 40.0305 9.64005 39.3705 10.42C38.7105 11.2 38.3805 12.25 38.3805 13.57V13.8101C38.3805 15.0901 38.7205 16.1201 39.4005 16.9001C40.0805 17.6601 40.9705 18.0401 42.0705 18.0401Z" fill="white"/>
<path d="M58.4428 17.7701C59.1228 18.61 60.0728 19.03 61.2928 19.03C62.5128 19.03 63.4528 18.61 64.1128 17.7701C64.7928 16.93 65.1328 15.76 65.1328 14.26V14.05C65.1328 12.55 64.7928 11.3801 64.1128 10.5401C63.4528 9.68005 62.5128 9.25005 61.2928 9.25005C60.0928 9.25005 59.1528 9.67005 58.4728 10.51C57.7928 11.33 57.4528 12.49 57.4528 13.99V14.23C57.4528 15.73 57.7828 16.91 58.4428 17.7701ZM61.2628 22.3301C58.8828 22.3301 56.9128 21.6 55.3528 20.14C53.7928 18.66 53.0128 16.72 53.0128 14.32V14.0801C53.0128 11.6601 53.7928 9.70005 55.3528 8.20005C56.9128 6.70005 58.8928 5.95005 61.2928 5.95005C63.6928 5.95005 65.6628 6.69005 67.2028 8.17005C68.7628 9.63005 69.5428 11.57 69.5428 13.99V14.23C69.5428 16.67 68.7628 18.6301 67.2028 20.1101C65.6428 21.5901 63.6628 22.3301 61.2628 22.3301Z" fill="white"/>
</svg>
