<svg width="303" height="720" viewBox="0 0 303 720" fill="none" xmlns="http://www.w3.org/2000/svg">
<path d="M6.71076 552.583L-11.0896 714.437C-5.68973 716.672 -0.124268 718.532 5.56232 720L23.9369 554.347L28.8176 554.347L36.8564 482.306L44.8953 554.483L50.2067 554.483L68.4377 719.322C73.8066 718.015 79.0811 716.384 84.2283 714.437L66.428 552.719L72.0264 552.719L64.2747 483.527L87.0993 549.734L92.8413 547.971L137.773 678.892C141.218 675.907 145.381 672.109 150.118 667.496L107.053 543.358L113.082 541.594L91.2623 478.101L126.576 535.896L132.461 532.64L188.446 624.217C191.461 620.418 194.619 616.348 197.777 612.007L145.094 525.721L151.41 522.329L117.676 466.976L162.894 514.596L168.493 509.847L225.913 570.492C228.353 566.693 230.794 562.759 233.091 558.688L178.972 500.622L184.858 495.466L141.792 450.153L194.045 486.105L198.926 479.729L255.485 518.666L261.083 507.405L206.677 470.232L211.845 463.584L162.033 429.531L218.305 453.273L222.037 444.997L278.596 468.739L282.759 458.021L226.918 434.551L230.794 426.275L177.393 403.889L234.813 415.285L236.392 406.331L295.822 418.27L298.119 407.959L238.689 396.02L240.842 386.523L186.724 375.263L242.134 375.263L242.134 365.766L303 365.766L303 355.998L242.134 355.998L242.134 345.551L157.583 345.551L157.583 342.566L239.407 326.15L241.847 336.733L300.847 324.929C299.223 313.926 296.777 303.045 293.526 292.369L234.526 304.172L236.823 314.483L235.818 314.483L154.855 330.763C153.851 326.964 152.559 323.301 151.123 319.502L227.636 287.349L231.942 296.574L286.779 273.51L286.061 271.747C282.329 261.843 278.453 252.346 274.577 243.12L217.157 266.998L221.319 275.952L220.458 275.952L144.807 307.835C143.084 304.579 141.074 301.458 139.065 298.338L207.682 252.21L213.424 259.536L265.103 223.313C260.365 213.137 255.485 203.369 250.747 194.008L193.327 233.895L198.926 241.085L131.026 287.62C128.729 285.042 126.432 282.6 123.992 280.294L180.12 221.278L186.58 226.84L238.976 171.758C233.378 161.854 227.636 152.493 221.894 143.674L162.177 206.354L168.636 211.781L112.364 270.797C109.924 268.898 107.196 266.998 104.469 265.235L146.529 196.586L153.42 200.249L203.95 117.49C196.916 107.722 189.595 98.9033 183.566 90.3561L126.145 185.325L133.036 188.988L90.9752 257.908C88.2207 256.55 85.3937 255.328 82.5057 254.245L108.201 178.542L115.092 180.712L156.434 60.3731C145.237 49.6552 135.907 41.515 131.744 37.4449L85.6638 171.758L92.5543 173.929L66.7151 249.226C65.2796 249.226 63.8441 249.226 62.4086 248.14C60.973 247.055 59.681 248.14 58.3891 248.14L67.1457 169.045L73.462 169.045L90.9752 10.1752C81.8764 5.72994 72.234 2.35815 62.265 0.135662L43.8905 166.196L50.3503 166.196L41.5936 245.291L33.5548 245.291L24.7981 166.196L30.3967 166.196L11.735 -1.27316e-05C1.77686 2.12946 -7.86584 5.41024 -16.9752 9.76821L0.825188 169.045L6.71078 169.045L15.4674 248.14C13.027 248.14 10.7302 249.09 8.43337 249.633L-17.6929 173.522L-13.0993 171.758L-59.1791 37.9875C-64.0599 42.0576 -71.9551 48.9768 -81.8602 58.8807L-40.0868 180.034L-35.2061 178.542L-9.2234 254.245L-15.2525 256.823L-57.313 187.903L-53.8678 186.003L-111.288 91.9841C-116.887 98.9033 -122.916 106.637 -128.945 114.912L-77.6972 198.892L-73.8214 196.721L-31.7609 266.727C-33.34 267.812 -35.0626 268.898 -36.6416 270.119L-93.7749 210.288L-91.3346 208.253L-150.765 145.845C-155.358 153.171 -160.095 160.769 -165.12 168.909L-111.575 225.076L-108.13 222.77L-50.7096 281.922L-54.4419 285.585L-122.485 238.779L-121.05 237.015L-178.47 197.264C-182.202 204.454 -185.935 211.916 -189.523 219.785L-136.84 256.687L-135.118 254.381L-67.0744 301.187C-67.9713 302.404 -68.7863 303.673 -69.5148 304.986L-146.315 272.696L-146.315 271.204L-203.735 247.055C-206.75 253.974 -209.621 260.622 -212.348 268.355L-212.348 269.169L-156.363 292.776L-155.502 290.74L-78.5585 323.166L-79.9941 326.829L-162.249 310.277L-162.249 309.192L-222.11 297.253C-224.119 304.443 -225.842 311.905 -227.134 319.502L-167.273 331.441L-167.273 330.22L-83.7264 346.772L-83.7264 350.164L-167.847 350.164L-229 350.164C-229 353.691 -229 357.354 -229 361.017C-229 364.681 -229 368.344 -229 372.007L-168.278 372.007L-84.3006 372.007L-84.3006 374.72L-165.55 390.322L-225.555 402.532C-224.263 409.587 -222.684 416.099 -220.818 423.154L-160.957 411.08L-79.4198 395.071L-78.7021 397.106L-155.215 429.531L-155.215 430.48L-211.343 454.087L-203.591 473.081L-146.171 449.067L-68.9406 417.32L-68.0793 418.677L-136.84 465.348L-135.692 466.84L-189.954 504.149L-179.906 522.058L-122.485 482.578L-122.485 483.799L-54.4419 437.128L-109.566 497.366L-107.556 498.994L-162.105 555.975L-151.195 572.663L-92.9136 510.933L-91.0475 512.425L-34.9191 453.544L-76.9795 522.329L-74.1085 523.821L-126.505 609.565C-122.342 615.127 -118.322 620.418 -114.303 625.302L-57.7437 532.776L-54.8726 534.268L-13.5299 466.433L-39.082 540.916L-35.3497 542.001L-78.415 665.732C-72.673 671.294 -67.7922 675.636 -64.0599 679.299L-18.6978 547.564L-14.8219 548.785L9.72532 477.151L1.39939 552.041L6.71076 552.583Z" fill="#104751"/>
</svg>
